<?xml version="1.0" standalone="no"?>
<!DOCTYPE svg PUBLIC "-//W3C//DTD SVG 20010904//EN"
 "http://www.w3.org/TR/2001/REC-SVG-20010904/DTD/svg10.dtd">
<svg version="1.0" xmlns="http://www.w3.org/2000/svg"
 width="256.000000pt" height="256.000000pt" viewBox="0 0 256.000000 256.000000"
 preserveAspectRatio="xMidYMid meet">
<metadata>
Created by potrace 1.11, written by Peter Selinger 2001-2013
</metadata>
<g transform="translate(0.000000,256.000000) scale(0.100000,-0.100000)"
fill="#000000" stroke="none">
<path d="M1118 2205 c-296 -56 -550 -254 -679 -529 -67 -144 -83 -217 -83
-396 0 -181 16 -255 88 -404 97 -201 248 -352 450 -447 144 -67 217 -83 396
-83 179 0 252 16 396 83 106 50 190 109 271 192 85 86 127 147 179 255 71 148
87 222 87 404 0 179 -15 252 -82 396 -68 144 -178 278 -306 370 -71 52 -220
121 -311 145 -104 27 -300 34 -406 14z m232 -472 c0 -3 -54 -108 -120 -233
l-120 -227 0 -126 0 -127 -85 0 -85 0 0 126 0 126 -111 215 c-61 118 -110 216
-108 217 2 2 43 6 91 9 l86 6 58 -137 c31 -75 60 -141 64 -145 4 -5 36 59 71
142 l63 150 45 4 c87 7 151 7 151 0z m290 -276 c74 -32 121 -87 138 -165 l10
-42 -79 0 c-77 0 -79 1 -79 24 0 61 -85 103 -151 76 -50 -21 -69 -75 -69 -195
0 -169 23 -210 116 -209 61 0 90 19 102 68 8 31 9 31 80 34 l72 3 0 -33 c-1
-80 -88 -168 -187 -189 -74 -15 -169 -1 -222 34 -85 56 -127 170 -118 320 8
151 66 239 184 283 46 17 152 12 203 -9z"/>
</g>
</svg>
