<?xml version="1.0" standalone="no"?>
<!DOCTYPE svg PUBLIC "-//W3C//DTD SVG 20010904//EN"
 "http://www.w3.org/TR/2001/REC-SVG-20010904/DTD/svg10.dtd">
<svg version="1.0" xmlns="http://www.w3.org/2000/svg"
 width="256.000000pt" height="256.000000pt" viewBox="0 0 256.000000 256.000000"
 preserveAspectRatio="xMidYMid meet">
<metadata>
Created by potrace 1.11, written by Peter Selinger 2001-2013
</metadata>
<g transform="translate(0.000000,256.000000) scale(0.100000,-0.100000)"
fill="#000000" stroke="none">
<path d="M100 1280 l0 -1180 1180 0 1180 0 0 1180 0 1180 -1180 0 -1180 0 0
-1180z m1865 542 c167 -54 268 -171 299 -349 l6 -33 -135 0 -135 0 -6 28 c-14
63 -26 90 -52 114 -61 57 -190 64 -256 14 -70 -53 -91 -132 -90 -346 0 -219
32 -309 121 -346 50 -22 132 -18 183 9 54 27 78 59 88 117 l8 45 128 3 c71 1
133 -1 137 -5 4 -4 3 -33 -3 -63 -29 -158 -148 -276 -322 -319 -61 -15 -206
-16 -271 -1 -161 36 -288 173 -331 357 -22 93 -22 324 0 416 42 176 144 301
288 353 84 30 256 33 343 6z m-1320 -234 c55 -130 103 -239 106 -242 3 -3 52
105 109 239 l103 245 149 0 148 0 -185 -370 -185 -370 0 -200 0 -200 -140 0
-140 0 0 210 0 210 -180 360 -180 361 147 -3 147 -3 101 -237z"/>
</g>
</svg>
