<?xml version="1.0" standalone="no"?>
<!DOCTYPE svg PUBLIC "-//W3C//DTD SVG 20010904//EN"
 "http://www.w3.org/TR/2001/REC-SVG-20010904/DTD/svg10.dtd">
<svg version="1.0" xmlns="http://www.w3.org/2000/svg"
 width="256.000000pt" height="256.000000pt" viewBox="0 0 256.000000 256.000000"
 preserveAspectRatio="xMidYMid meet">
<metadata>
Created by potrace 1.11, written by Peter Selinger 2001-2013
</metadata>
<g transform="translate(0.000000,256.000000) scale(0.100000,-0.100000)"
fill="#000000" stroke="none">
<path d="M590 1840 c0 -59 -1 -60 -27 -60 -16 0 -44 -5 -65 -10 -50 -14 -58
-43 -59 -219 -1 -177 -11 -217 -62 -250 l-37 -25 29 -12 c54 -23 64 -60 71
-254 4 -96 10 -182 14 -191 10 -23 50 -39 96 -39 l40 0 0 -60 0 -60 695 0 695
0 0 59 0 58 51 5 c81 8 83 12 90 216 4 97 10 186 14 197 11 28 56 75 72 75 23
0 14 15 -17 27 -51 19 -62 63 -69 266 -7 203 -6 202 -93 213 l-48 7 0 52 0 52
-82 6 c-46 4 -359 7 -695 7 l-613 0 0 -60z m346 -405 c31 -75 61 -132 64 -128
4 5 28 60 55 123 26 63 52 121 57 128 10 12 158 18 158 7 0 -3 -45 -95 -100
-205 l-100 -200 0 -110 0 -110 -75 0 -75 0 0 112 0 112 -100 196 c-55 109 -97
200 -93 204 3 3 39 6 79 6 l72 0 58 -135z m727 124 c72 -20 156 -120 157 -186
0 -22 -4 -23 -75 -23 -74 0 -75 0 -75 25 0 56 -90 101 -147 73 -52 -25 -68
-70 -68 -193 0 -159 27 -205 120 -205 42 0 95 44 95 79 0 19 6 21 75 21 71 0
75 -1 75 -23 0 -36 -42 -108 -80 -139 -97 -77 -270 -70 -357 14 -56 54 -77
118 -78 238 0 61 6 125 14 153 17 58 81 133 136 158 46 21 148 25 208 8z"/>
</g>
</svg>
