<?xml version="1.0" standalone="no"?>
<!DOCTYPE svg PUBLIC "-//W3C//DTD SVG 20010904//EN"
 "http://www.w3.org/TR/2001/REC-SVG-20010904/DTD/svg10.dtd">
<svg version="1.0" xmlns="http://www.w3.org/2000/svg"
 width="256.000000pt" height="256.000000pt" viewBox="0 0 256.000000 256.000000"
 preserveAspectRatio="xMidYMid meet">
<metadata>
Created by potrace 1.11, written by Peter Selinger 2001-2013
</metadata>
<g transform="translate(0.000000,256.000000) scale(0.100000,-0.100000)"
fill="#000000" stroke="none">
<path d="M1179 2240 c-400 -50 -723 -335 -826 -730 -36 -136 -36 -324 0 -460
92 -353 353 -615 703 -706 142 -37 326 -37 468 0 350 91 611 353 703 706 36
136 36 324 0 460 -75 286 -260 514 -522 641 -152 73 -365 109 -526 89z m-277
-835 c49 -88 93 -163 97 -168 4 -4 40 53 81 125 111 200 117 208 145 208 14 0
25 -3 25 -6 0 -3 -49 -91 -110 -195 l-110 -190 0 -120 0 -119 -25 0 -25 0 0
115 0 115 -110 190 c-60 104 -110 194 -110 200 0 6 12 10 27 8 23 -3 38 -25
115 -163z m787 132 c29 -20 50 -44 67 -80 31 -68 31 -87 -1 -87 -20 0 -26 7
-35 39 -14 54 -43 87 -95 107 -90 34 -181 -1 -228 -89 -20 -37 -22 -56 -22
-172 0 -116 3 -135 23 -177 30 -60 71 -90 133 -96 102 -10 163 25 187 107 11
34 17 41 37 41 29 0 30 -4 10 -61 -19 -52 -47 -84 -98 -111 -128 -65 -276 -6
-328 130 -18 50 -20 74 -17 182 3 109 6 131 28 174 47 92 110 127 221 124 63
-3 82 -7 118 -31z"/>
</g>
</svg>
