<?xml version="1.0" standalone="no"?>
<!DOCTYPE svg PUBLIC "-//W3C//DTD SVG 20010904//EN"
 "http://www.w3.org/TR/2001/REC-SVG-20010904/DTD/svg10.dtd">
<svg version="1.0" xmlns="http://www.w3.org/2000/svg"
 width="256.000000pt" height="256.000000pt" viewBox="0 0 256.000000 256.000000"
 preserveAspectRatio="xMidYMid meet">
<metadata>
Created by potrace 1.11, written by Peter Selinger 2001-2013
</metadata>
<g transform="translate(0.000000,256.000000) scale(0.100000,-0.100000)"
fill="#000000" stroke="none">
<path d="M1118 2205 c-296 -56 -550 -254 -679 -529 -67 -144 -83 -217 -83
-396 0 -181 16 -255 88 -404 97 -201 248 -352 450 -447 144 -67 217 -83 396
-83 179 0 252 16 396 83 106 50 190 109 271 192 85 86 127 147 179 255 71 148
87 222 87 404 0 179 -15 252 -82 396 -68 144 -178 278 -306 370 -71 52 -220
121 -311 145 -104 27 -300 34 -406 14z m-182 -770 c31 -75 61 -132 64 -128 4
5 28 60 55 123 26 63 52 121 57 128 10 12 158 18 158 7 0 -3 -45 -95 -100
-205 l-100 -200 0 -110 0 -110 -75 0 -75 0 0 112 0 112 -100 196 c-55 109 -97
200 -93 204 3 3 39 6 79 6 l72 0 58 -135z m727 124 c72 -20 156 -120 157 -186
0 -22 -4 -23 -75 -23 -74 0 -75 0 -75 25 0 56 -90 101 -147 73 -52 -25 -68
-70 -68 -193 0 -159 27 -205 120 -205 42 0 95 44 95 79 0 19 6 21 75 21 71 0
75 -1 75 -23 0 -36 -42 -108 -80 -139 -97 -77 -270 -70 -357 14 -56 54 -77
118 -78 238 0 61 6 125 14 153 17 58 81 133 136 158 46 21 148 25 208 8z"/>
</g>
</svg>
