<?xml version="1.0" encoding="UTF-8" standalone="no"?>
<svg width="510px" height="51px" viewBox="0 0 510 51" version="1.1" xmlns="http://www.w3.org/2000/svg" xmlns:xlink="http://www.w3.org/1999/xlink" xmlns:sketch="http://www.bohemiancoding.com/sketch/ns">
    <!-- Generator: Sketch 3.4.2 (15857) - http://www.bohemiancoding.com/sketch -->
    <title>YU-CHIEN CHAN</title>
    <desc>Created with Sketch.</desc>
    <defs></defs>
    <g id="Welcome" stroke="none" stroke-width="1" fill="none" fill-rule="evenodd" sketch:type="MSPage">
        <g id="Desktop" sketch:type="MSArtboardGroup" transform="translate(-333.000000, -250.000000)" stroke="#000000" fill="#FFFFFF">
            <path d="M357.772358,280.00813 L375.528455,252.560976 L368.504065,252.560976 L354.910569,274.674797 L340.99187,252.560976 L333.642276,252.560976 L351.593496,280.00813 L351.593496,299 L357.772358,299 L357.772358,280.00813 Z M417.804878,282.219512 L417.804878,252.560976 L411.626016,252.560976 L411.626016,282.219512 C411.626016,286.382135 410.596216,289.536575 408.536585,291.682927 C406.476954,293.829279 403.474274,294.902439 399.528455,294.902439 C395.365833,294.902439 392.178873,293.829279 389.96748,291.682927 C387.756087,289.536575 386.650407,286.382135 386.650407,282.219512 L386.650407,252.560976 L380.471545,252.560976 L380.471545,282.219512 C380.471545,288.420085 382.151745,292.940365 385.512195,295.780488 C388.872646,298.62061 393.544686,300.04065 399.528455,300.04065 C405.382143,300.04065 409.891583,298.55557 413.056911,295.585366 C416.222238,292.615161 417.804878,288.159921 417.804878,282.219512 L417.804878,282.219512 Z M425.869919,278.317073 L425.869919,283.520325 L444.666667,283.520325 L444.666667,278.317073 L425.869919,278.317073 Z M485.642276,266.544715 L491.821138,266.544715 C491.474253,264.073158 490.737133,261.894318 489.609756,260.00813 C488.482379,258.121942 487.073179,256.550142 485.382114,255.292683 C483.691048,254.035224 481.761528,253.081304 479.593496,252.430894 C477.425463,251.780485 475.127383,251.455285 472.699187,251.455285 C469.143614,251.455285 465.989174,252.094845 463.235772,253.373984 C460.482371,254.653123 458.184291,256.398363 456.341463,258.609756 C454.498636,260.821149 453.100276,263.411909 452.146341,266.382114 C451.192407,269.352318 450.715447,272.528438 450.715447,275.910569 C450.715447,279.2927 451.159887,282.45798 452.04878,285.406504 C452.937674,288.355028 454.270994,290.913268 456.04878,293.081301 C457.826567,295.249333 460.059607,296.951213 462.747967,298.186992 C465.436328,299.42277 468.579928,300.04065 472.178862,300.04065 C478.119271,300.04065 482.802151,298.41465 486.227642,295.162602 C489.653134,291.910553 491.669374,287.357753 492.276423,281.504065 L486.097561,281.504065 C485.967479,283.411934 485.577239,285.189694 484.926829,286.837398 C484.27642,288.485103 483.3767,289.905143 482.227642,291.097561 C481.078585,292.289979 479.712745,293.222219 478.130081,293.894309 C476.547418,294.566399 474.737138,294.902439 472.699187,294.902439 C469.924105,294.902439 467.539305,294.382119 465.544715,293.341463 C463.550126,292.300808 461.913286,290.902448 460.634146,289.146341 C459.355007,287.390235 458.411927,285.330635 457.804878,282.96748 C457.197829,280.604324 456.894309,278.100284 456.894309,275.455285 C456.894309,273.027088 457.197829,270.685648 457.804878,268.430894 C458.411927,266.17614 459.355007,264.17074 460.634146,262.414634 C461.913286,260.658528 463.539286,259.260168 465.512195,258.219512 C467.485105,257.178857 469.859065,256.658537 472.634146,256.658537 C475.886195,256.658537 478.693755,257.482377 481.056911,259.130081 C483.420066,260.777786 484.948506,263.249306 485.642276,266.544715 L485.642276,266.544715 Z M499.95122,252.560976 L499.95122,299 L506.130081,299 L506.130081,277.731707 L530.585366,277.731707 L530.585366,299 L536.764228,299 L536.764228,252.560976 L530.585366,252.560976 L530.585366,272.528455 L506.130081,272.528455 L506.130081,252.560976 L499.95122,252.560976 Z M547.170732,252.560976 L547.170732,299 L553.349593,299 L553.349593,252.560976 L547.170732,252.560976 Z M563.756098,252.560976 L563.756098,299 L596.01626,299 L596.01626,293.796748 L569.934959,293.796748 L569.934959,277.731707 L594.065041,277.731707 L594.065041,272.528455 L569.934959,272.528455 L569.934959,257.764228 L595.821138,257.764228 L595.821138,252.560976 L563.756098,252.560976 Z M603.430894,252.560976 L603.430894,299 L609.284553,299 L609.284553,261.731707 L609.414634,261.731707 L633.674797,299 L640.439024,299 L640.439024,252.560976 L634.585366,252.560976 L634.585366,290.219512 L634.455285,290.219512 L610,252.560976 L603.430894,252.560976 Z M701.186992,266.544715 L707.365854,266.544715 C707.018968,264.073158 706.281848,261.894318 705.154472,260.00813 C704.027095,258.121942 702.617895,256.550142 700.926829,255.292683 C699.235764,254.035224 697.306244,253.081304 695.138211,252.430894 C692.970179,251.780485 690.672099,251.455285 688.243902,251.455285 C684.688329,251.455285 681.533889,252.094845 678.780488,253.373984 C676.027087,254.653123 673.729007,256.398363 671.886179,258.609756 C670.043351,260.821149 668.644991,263.411909 667.691057,266.382114 C666.737123,269.352318 666.260163,272.528438 666.260163,275.910569 C666.260163,279.2927 666.704603,282.45798 667.593496,285.406504 C668.482389,288.355028 669.815709,290.913268 671.593496,293.081301 C673.371283,295.249333 675.604323,296.951213 678.292683,298.186992 C680.981043,299.42277 684.124643,300.04065 687.723577,300.04065 C693.663986,300.04065 698.346866,298.41465 701.772358,295.162602 C705.197849,291.910553 707.214089,287.357753 707.821138,281.504065 L701.642276,281.504065 C701.512194,283.411934 701.121954,285.189694 700.471545,286.837398 C699.821135,288.485103 698.921415,289.905143 697.772358,291.097561 C696.6233,292.289979 695.25746,293.222219 693.674797,293.894309 C692.092133,294.566399 690.281853,294.902439 688.243902,294.902439 C685.468821,294.902439 683.084021,294.382119 681.089431,293.341463 C679.094841,292.300808 677.458001,290.902448 676.178862,289.146341 C674.899723,287.390235 673.956643,285.330635 673.349593,282.96748 C672.742544,280.604324 672.439024,278.100284 672.439024,275.455285 C672.439024,273.027088 672.742544,270.685648 673.349593,268.430894 C673.956643,266.17614 674.899723,264.17074 676.178862,262.414634 C677.458001,260.658528 679.084001,259.260168 681.056911,258.219512 C683.02982,257.178857 685.40378,256.658537 688.178862,256.658537 C691.430911,256.658537 694.238471,257.482377 696.601626,259.130081 C698.964781,260.777786 700.493221,263.249306 701.186992,266.544715 L701.186992,266.544715 Z M715.495935,252.560976 L715.495935,299 L721.674797,299 L721.674797,277.731707 L746.130081,277.731707 L746.130081,299 L752.308943,299 L752.308943,252.560976 L746.130081,252.560976 L746.130081,272.528455 L721.674797,272.528455 L721.674797,252.560976 L715.495935,252.560976 Z M770.455285,279.813008 L778.325203,258.154472 L778.455285,258.154472 L786.195122,279.813008 L770.455285,279.813008 Z M775.073171,252.560976 L756.99187,299 L763.300813,299 L768.504065,285.01626 L788.146341,285.01626 L793.219512,299 L800.04878,299 L781.902439,252.560976 L775.073171,252.560976 Z M804.536585,252.560976 L804.536585,299 L810.390244,299 L810.390244,261.731707 L810.520325,261.731707 L834.780488,299 L841.544715,299 L841.544715,252.560976 L835.691057,252.560976 L835.691057,290.219512 L835.560976,290.219512 L811.105691,252.560976 L804.536585,252.560976 Z" id="YU-CHIEN-CHAN" sketch:type="MSShapeGroup"></path>
        </g>
    </g>
</svg>